<?xml version="1.0" standalone="no"?>
<svg xmlns="http://www.w3.org/2000/svg" viewBox="0 0 121.512 29" width="121.512" height="29"><g fill="#000000" color="#000000" transform="translate(0, 0) scale(0.58)"><svg width="50.0" height="50.0" x="0.0" y="0.0" viewBox="0 0 50 50"><g><g><g><path fill="currentColor" d="M43,36h-4V17.025c0-2.944-4.615-7.71-8.943-8.368c-1.818-0.278-6.179-0.228-8.153,0.009     C18.259,9.1,12,14.257,12,17.025V36H8V17.025c0-5.204,7.937-11.689,13.321-12.332c2.278-0.271,6.992-0.326,9.195,0.009     C36.522,5.616,43,11.836,43,17.025V36z"></path></g><path fill="currentColor" d="M42.016,20.999c4.01,0,7.26,3.251,7.26,7.26c0,4.01-3.25,7.261-7.26,7.261"></path><path fill="currentColor" d="M8.537,20.999c-4.01,0-7.262,3.251-7.262,7.26c0,4.01,3.252,7.261,7.262,7.261"></path></g><g><path fill="currentColor" d="M32.246,31h-0.302c-2.956,0-5.351-2.451-5.351-5.818c0-0.506,0.059-1.182,0.16-1.182h10.287    c-1.02-7-5.678-10.607-11.276-10.607c-5.6,0-10.258,3.607-11.278,10.607h10.289c0.101,0,0.159,0.676,0.159,1.182    c0,3.367-2.395,5.818-5.35,5.818h-0.301C16.987,31,15,29.176,14,26.862v6.123c0,7.231,5.153,13.094,11.5,13.094    c6.346,0,11.5-5.862,11.5-13.094v-6.123C37,29.177,34.543,31,32.246,31z M30,39h-8v-3h8V39z"></path></g></g></svg></g><line x1="41" y1="1" x2="41" y2="28" stroke="#000000" stroke-linecap="round"></line><path fill="#000000" fill-rule="nonzero" d="M9.12 1.44L14.59 17.09L11.11 17.09L10.15 14.14L4.42 14.14L3.48 17.09L0 17.09L5.47 1.44Q5.83 0.62 6.28 0.31Q6.72 0 7.37 0Q8.02 0 8.41 0.29Q8.81 0.58 9.12 1.44L9.12 1.44ZM5.26 11.33L9.38 11.33L7.37 4.56L5.26 11.33ZM27.34 7.90L27.34 17.09L24.22 17.09L24.22 8.33Q24.22 7.15 23.74 6.72Q23.26 6.29 22.39 6.29L22.39 6.29L19.58 7.46L19.58 17.09L16.46 17.09L16.46 3.38L18.79 3.38L19.51 5.02L23.35 3.24Q24.96 3.24 26.15 4.43Q27.34 5.62 27.34 7.90L27.34 7.90ZM36.31 14.45L36.31 17.09L34.37 17.09Q32.59 17.09 31.67 16.03Q30.74 14.98 30.74 13.51L30.74 13.51L30.74 6.31L29.42 6.31L29.42 3.94L30.74 3.94L30.74 1.25L33.86 1.25L33.86 3.94L36.07 3.94L36.07 6.31L33.86 6.31L33.86 13.32Q33.86 14.45 34.94 14.45L34.94 14.45L36.31 14.45ZM48.34 3.29L48.34 17.09L46.25 17.09L45.29 15.43L41.95 17.23Q39.17 17.23 38.21 15.22L38.21 15.22Q37.73 14.23 37.55 13.09Q37.37 11.95 37.37 10.72Q37.37 9.48 37.39 8.89Q37.42 8.30 37.51 7.52Q37.61 6.74 37.79 6.22Q37.97 5.69 38.30 5.12Q38.64 4.56 39.12 4.22L39.12 4.22Q40.20 3.48 41.93 3.48L41.93 3.48L45.22 3.48L48.34 3.29ZM42.84 13.94L45.22 12.72L45.22 6.29L42.84 6.29Q41.52 6.29 41.00 7.30Q40.49 8.30 40.49 10.31Q40.49 12.31 40.98 13.13Q41.47 13.94 42.84 13.94L42.84 13.94ZM58.99 3.43L58.99 3.43L58.13 6.50Q57.77 6.36 57.31 6.36L57.31 6.36Q56.11 6.36 54.36 7.39L54.36 7.39L54.36 17.09L51.24 17.09L51.24 3.38L53.57 3.38L54.29 4.58L57.60 3.22Q57.84 3.19 58.25 3.19Q58.66 3.19 58.99 3.43ZM70.51 3.29L70.51 17.09L68.42 17.09L67.46 15.43L64.13 17.23Q61.34 17.23 60.38 15.22L60.38 15.22Q59.90 14.23 59.72 13.09Q59.54 11.95 59.54 10.72Q59.54 9.48 59.57 8.89Q59.59 8.30 59.69 7.52Q59.78 6.74 59.96 6.22Q60.14 5.69 60.48 5.12Q60.82 4.56 61.30 4.22L61.30 4.22Q62.38 3.48 64.10 3.48L64.10 3.48L67.39 3.48L70.51 3.29ZM65.02 13.94L67.39 12.72L67.39 6.29L65.02 6.29Q63.70 6.29 63.18 7.30Q62.66 8.30 62.66 10.31Q62.66 12.31 63.16 13.13Q63.65 13.94 65.02 13.94L65.02 13.94Z" transform="translate(51, 5.956)"></path></svg>